+15_ID_stride4.mot
nRows=6
nColumns=38

name +15_ID_stride4.mot
datacolumns 38
datarows 6
range 1.8950000000 1.9200000000
endheader
time	pelvis_tilt_moment	pelvis_list_moment	pelvis_rotation_moment	pelvis_tx_force	pelvis_ty_force	pelvis_tz_force	hip_flexion_r_moment	hip_adduction_r_moment	hip_rotation_r_moment	knee_angle_r_moment	ankle_angle_r_moment	subtalar_angle_r_moment	mtp_angle_r_moment	hip_flexion_l_moment	hip_adduction_l_moment	hip_rotation_l_moment	knee_angle_l_moment	ankle_angle_l_moment	subtalar_angle_l_moment	mtp_angle_l_moment	lumbar_extension_moment	lumbar_bending_moment	lumbar_rotation_moment	arm_flex_r_moment	arm_add_r_moment	arm_rot_r_moment	elbow_flex_r_moment	pro_sup_r_moment	wrist_flex_r_moment	wrist_dev_r_moment	arm_flex_l_moment	arm_add_l_moment	arm_rot_l_moment	elbow_flex_l_moment	pro_sup_l_moment	wrist_flex_l_moment	wrist_dev_l_moment
        1.8950000000	      -12.3881741819	      -13.5531861009	       -3.4236984594	       12.6581181139	      -15.7116219852	     -111.9694633369	       11.8501956149	      -44.0447374275	       17.3311958119	       16.5945672288	     -195.7607444709	       44.5867774066	       -0.0320971085	       -9.6492270297	        2.2554643473	       -2.1447317116	       -3.2181664187	        2.4658334489	       -0.2058542690	        0.1442371438	       11.4497568812	        3.9707581589	      -31.7674837154	        2.1950522821	       -2.0764885572	       -3.2023279812	        5.3335136277	       -0.2095384337	       -0.2480798486	       -0.5220722834	        8.2900008079	        5.6833611319	        3.6393528387	        5.4659252660	       -0.0036493108	        0.4843990589	       -0.3788055147	
        1.9000000000	      -12.6696461864	      -22.3218383813	       -2.7993170931	       24.3732305676	      -19.8148113925	     -113.5686740315	       10.3038004631	      -42.5600898777	       17.4743247945	        7.0811957376	     -187.6483595295	       42.7780473618	       -0.0368137525	      -12.3137046477	       -0.4040360950	       -1.0739417250	       -3.4402377019	        2.5510381902	       -0.3214632769	        0.1452750878	        4.8369204873	        6.7830973552	      -32.8099772055	        1.6981665621	       -2.2539442771	       -3.2926913028	        4.7781189433	       -0.2046820658	       -0.2706398240	       -0.4767375586	        8.2258468111	        5.4924806194	        3.6222434970	        5.0693945763	        0.0072860660	        0.4781264155	       -0.3399904312	
        1.9050000000	       -8.4237438441	      -38.3669238976	        0.5351861674	       40.2044043336	      -17.4408088025	     -103.6826091746	        2.1921276458	      -45.7845233028	       20.8766253917	       -6.2675570539	     -179.5031498266	       41.2022835858	       -0.0413579896	      -15.9216320334	       -2.0925552008	        0.0153344062	       -4.1763962565	        2.6221264188	       -0.4368108507	        0.1463952525	       -0.4239900541	        9.7755748315	      -34.0353562188	        1.0435432888	       -2.3608500721	       -3.3404508975	        4.1981632571	       -0.1988438137	       -0.2908820366	       -0.4291229943	        8.0695304782	        5.2206018965	        3.5895487003	        4.6711188933	        0.0185518780	        0.4718201705	       -0.3009329844	
        1.9100000000	       -2.0243385075	      -47.1615619376	        0.9816142590	       52.3831828330	      -11.9852705783	      -87.9422535744	        1.0192257075	      -46.5909137999	       22.4046935136	      -15.8164293799	     -168.9379599638	       38.9065564423	       -0.0454633475	      -20.8746765724	       -2.0925861865	        0.9509901052	       -5.6713765586	        2.6317277311	       -0.5318877329	        0.1464963409	       -4.4307489737	       12.4138046048	      -35.4370275427	        0.2217524609	       -2.3565541523	       -3.3321804915	        3.5782561986	       -0.1913180095	       -0.3080581659	       -0.3773661991	        7.7983276299	        4.8370106631	        3.5297750324	        4.2496607069	        0.0300941358	        0.4639719102	       -0.2598710607	
        1.9150000000	        2.7821963403	      -50.2924051228	       -0.3979357566	       58.4603121340	       -7.6344156912	      -73.4461333346	        3.9370363448	      -46.3145634566	       22.6791009614	      -20.3026256160	     -155.1890100451	       35.6142723940	       -0.0484518037	      -27.0034572423	       -1.2398906212	        1.6363528381	       -7.9720763086	        2.6317079591	       -0.5936488274	        0.1462103919	       -7.4266115781	       13.9443912888	      -36.8940873384	       -0.7441936201	       -2.2840778755	       -3.2754278182	        2.9133878916	       -0.1815738804	       -0.3210962289	       -0.3206840789	        7.3995610824	        4.3277704448	        3.4313639129	        3.7903226737	        0.0416874460	        0.4533008831	       -0.2158391745	
        1.9200000000	        4.2823593891	      -35.6123745481	       -8.7776408948	       51.5911307430	      -10.2744438356	      -64.1363633804	       22.3483142063	      -37.1018503191	       16.5735882762	      -16.1837744399	     -137.5337079152	       31.4068532793	       -0.0496120235	      -33.7581473822	        1.2349316233	        1.9839449755	      -10.9766636857	        2.5797547226	       -0.6120401240	        0.1445496473	       -9.3703858964	       13.9784950304	      -38.2317669532	       -1.8385436745	       -2.0614750621	       -3.1244804373	        2.1852368974	       -0.1680675694	       -0.3284829280	       -0.2566763766	        6.8289275269	        3.6534191160	        3.2674843336	        3.2588788677	        0.0529783195	        0.4360325817	       -0.1666760060	
